<?xml version="1.0" encoding="utf-8"?>
<svg xmlns="http://www.w3.org/2000/svg" viewBox="0 0 64 64" width="512" height="512">
  <defs>
    <linearGradient id="goldGrad" x1="0" x2="1">
      <stop offset="0%" stop-color="#FFF7D9"/>
      <stop offset="55%" stop-color="#FFD54A"/>
      <stop offset="100%" stop-color="#C89B2B"/>
    </linearGradient>
    <filter id="glow" x="-50%" y="-50%" width="200%" height="200%">
      <feGaussianBlur stdDeviation="2" result="g"/>
      <feMerge>
        <feMergeNode in="g"/>
        <feMergeNode in="SourceGraphic"/>
      </feMerge>
    </filter>
  </defs>
  <rect width="100%" height="100%" fill="none"/>
  <g fill="none" stroke="url(#goldGrad)" stroke-width="3" stroke-linecap="round" stroke-linejoin="round" filter="url(#glow)">
    <path d="M6 30 C18 18, 26 12, 32 12 C38 12, 46 18, 58 30"/>
    <path d="M12 30 C12 30, 12 50, 20 52 L24 52 L24 36 C24 34, 28 32, 32 32 C36 32, 40 34, 40 36 L40 52 L44 52 C52 50, 52 30, 52 30"/>
  </g>
  <g fill="#FFDFA0" opacity="0.18">
    <ellipse cx="46" cy="16" rx="2" ry="2"/>
  </g>
</svg>